<?xml version="1.0" encoding="UTF-8" standalone="no"?>
<!-- Generator: Adobe Illustrator 16.0.0, SVG Export Plug-In . SVG Version: 6.00 Build 0)  -->

<svg
   xmlns:dc="http://purl.org/dc/elements/1.1/"
   xmlns:cc="http://creativecommons.org/ns#"
   xmlns:rdf="http://www.w3.org/1999/02/22-rdf-syntax-ns#"
   xmlns:svg="http://www.w3.org/2000/svg"
   xmlns="http://www.w3.org/2000/svg"
   xmlns:sodipodi="http://sodipodi.sourceforge.net/DTD/sodipodi-0.dtd"
   xmlns:inkscape="http://www.inkscape.org/namespaces/inkscape"
   version="1.1"
   id="Capa_1"
   x="0px"
   y="0px"
   width="95.667px"
   height="95.667px"
   viewBox="0 0 95.667 95.667"
   style="enable-background:new 0 0 95.667 95.667;"
   xml:space="preserve"
   sodipodi:docname="signup.svg"
   inkscape:version="0.92.4 (5da689c313, 2019-01-14)"><metadata
   id="metadata45"><rdf:RDF><cc:Work
       rdf:about=""><dc:format>image/svg+xml</dc:format><dc:type
         rdf:resource="http://purl.org/dc/dcmitype/StillImage" /><dc:title></dc:title></cc:Work></rdf:RDF></metadata><defs
   id="defs43" /><sodipodi:namedview
   pagecolor="#ffffff"
   bordercolor="#666666"
   borderopacity="1"
   objecttolerance="10"
   gridtolerance="10"
   guidetolerance="10"
   inkscape:pageopacity="0"
   inkscape:pageshadow="2"
   inkscape:window-width="1920"
   inkscape:window-height="1017"
   id="namedview41"
   showgrid="false"
   inkscape:zoom="2.4668904"
   inkscape:cx="-20.471116"
   inkscape:cy="47.833501"
   inkscape:window-x="-8"
   inkscape:window-y="-8"
   inkscape:window-maximized="1"
   inkscape:current-layer="Capa_1" />
<g
   id="g8"
   style="fill:#ffffff;fill-opacity:1;stroke:none;stroke-opacity:1"
   transform="rotate(-90,47.8335,47.8335)">
	<g
   id="g6"
   style="fill:#ffffff;fill-opacity:1;stroke:none;stroke-opacity:1">
		<path
   d="M 39.173,72.344 78.62,49.567 c 0.619,-0.356 1,-1.018 1,-1.731 0,-0.713 -0.381,-1.375 -1,-1.732 L 39.173,23.324 c -0.619,-0.357 -1.381,-0.357 -2,0 -0.619,0.357 -1,1.018 -1,1.732 V 35.661 H 2.121 c -1.104,0 -2,0.896 -2,2 v 20.344 c 0,1.104 0.896,2 2,2 h 34.053 v 10.604 c 0,0.716 0.381,1.375 1,1.732 0.31,0.18 0.655,0.268 1,0.268 0.345,0 0.69,-0.088 0.999,-0.265 z"
   id="path2"
   style="fill:#ffffff;fill-opacity:1;stroke:none;stroke-opacity:1"
   inkscape:connector-curvature="0" />
		<path
   d="M 80.775,0 H 40.026 c -1.104,0 -2,0.896 -2,2 v 6 c 0,1.104 0.896,2 2,2 h 40.749 c 2.632,0 4.771,2.141 4.771,4.771 v 66.125 c 0,2.631 -2.141,4.771 -4.771,4.771 H 40.026 c -1.104,0 -2,0.896 -2,2 v 6 c 0,1.104 0.896,2 2,2 h 40.749 c 8.146,0 14.771,-6.627 14.771,-14.771 V 14.772 C 95.546,6.627 88.92,0 80.775,0 Z"
   id="path4"
   style="fill:#ffffff;fill-opacity:1;stroke:none;stroke-opacity:1"
   inkscape:connector-curvature="0" />
	</g>
</g>
<g
   id="g10"
   style="stroke:none;stroke-opacity:1;fill:#ffffff;fill-opacity:1">
</g>
<g
   id="g12"
   style="stroke:none;stroke-opacity:1;fill:#ffffff;fill-opacity:1">
</g>
<g
   id="g14"
   style="stroke:none;stroke-opacity:1;fill:#ffffff;fill-opacity:1">
</g>
<g
   id="g16"
   style="stroke:none;stroke-opacity:1;fill:#ffffff;fill-opacity:1">
</g>
<g
   id="g18"
   style="stroke:none;stroke-opacity:1;fill:#ffffff;fill-opacity:1">
</g>
<g
   id="g20"
   style="stroke:none;stroke-opacity:1;fill:#ffffff;fill-opacity:1">
</g>
<g
   id="g22"
   style="stroke:none;stroke-opacity:1;fill:#ffffff;fill-opacity:1">
</g>
<g
   id="g24"
   style="stroke:none;stroke-opacity:1;fill:#ffffff;fill-opacity:1">
</g>
<g
   id="g26"
   style="stroke:none;stroke-opacity:1;fill:#ffffff;fill-opacity:1">
</g>
<g
   id="g28"
   style="stroke:none;stroke-opacity:1;fill:#ffffff;fill-opacity:1">
</g>
<g
   id="g30"
   style="stroke:none;stroke-opacity:1;fill:#ffffff;fill-opacity:1">
</g>
<g
   id="g32"
   style="stroke:none;stroke-opacity:1;fill:#ffffff;fill-opacity:1">
</g>
<g
   id="g34"
   style="stroke:none;stroke-opacity:1;fill:#ffffff;fill-opacity:1">
</g>
<g
   id="g36"
   style="stroke:none;stroke-opacity:1;fill:#ffffff;fill-opacity:1">
</g>
<g
   id="g38"
   style="stroke:none;stroke-opacity:1;fill:#ffffff;fill-opacity:1">
</g>
</svg>