<?xml version="1.0" encoding="UTF-8" standalone="no"?>
<!-- Generator: Adobe Illustrator 16.0.0, SVG Export Plug-In . SVG Version: 6.00 Build 0)  -->

<svg
   xmlns:dc="http://purl.org/dc/elements/1.1/"
   xmlns:cc="http://creativecommons.org/ns#"
   xmlns:rdf="http://www.w3.org/1999/02/22-rdf-syntax-ns#"
   xmlns:svg="http://www.w3.org/2000/svg"
   xmlns="http://www.w3.org/2000/svg"
   xmlns:sodipodi="http://sodipodi.sourceforge.net/DTD/sodipodi-0.dtd"
   xmlns:inkscape="http://www.inkscape.org/namespaces/inkscape"
   version="1.1"
   id="Capa_1"
   x="0px"
   y="0px"
   width="95.667px"
   height="95.667px"
   viewBox="0 0 95.667 95.667"
   style="enable-background:new 0 0 95.667 95.667;"
   xml:space="preserve"
   sodipodi:docname="login.svg"
   inkscape:version="0.92.4 (5da689c313, 2019-01-14)"><metadata
   id="metadata45"><rdf:RDF><cc:Work
       rdf:about=""><dc:format>image/svg+xml</dc:format><dc:type
         rdf:resource="http://purl.org/dc/dcmitype/StillImage" /></cc:Work></rdf:RDF></metadata><defs
   id="defs43" /><sodipodi:namedview
   pagecolor="#ffffff"
   bordercolor="#666666"
   borderopacity="1"
   objecttolerance="10"
   gridtolerance="10"
   guidetolerance="10"
   inkscape:pageopacity="0"
   inkscape:pageshadow="2"
   inkscape:window-width="1920"
   inkscape:window-height="1017"
   id="namedview41"
   showgrid="false"
   inkscape:zoom="2.4668904"
   inkscape:cx="47.8335"
   inkscape:cy="47.8335"
   inkscape:window-x="-8"
   inkscape:window-y="-8"
   inkscape:window-maximized="1"
   inkscape:current-layer="Capa_1" />
<g
   id="g8"
   style="stroke:none;stroke-opacity:1;fill:#ffffff;fill-opacity:1">
	<g
   id="g6"
   style="stroke:none;stroke-opacity:1;fill:#ffffff;fill-opacity:1">
		<path
   d="M39.173,72.344l39.447-22.777c0.619-0.356,1-1.018,1-1.731s-0.381-1.375-1-1.732L39.173,23.324    c-0.619-0.357-1.381-0.357-2,0c-0.619,0.357-1,1.018-1,1.732v10.605H2.121c-1.104,0-2,0.896-2,2v20.344c0,1.104,0.896,2,2,2    h34.053v10.604c0,0.716,0.381,1.375,1,1.732c0.31,0.18,0.655,0.268,1,0.268C38.519,72.609,38.864,72.521,39.173,72.344z"
   id="path2"
   style="stroke:none;stroke-opacity:1;fill:#ffffff;fill-opacity:1" />
		<path
   d="M80.775,0H40.026c-1.104,0-2,0.896-2,2v6c0,1.104,0.896,2,2,2h40.749c2.632,0,4.771,2.141,4.771,4.771v66.125    c0,2.631-2.141,4.771-4.771,4.771H40.026c-1.104,0-2,0.896-2,2v6c0,1.104,0.896,2,2,2h40.749c8.146,0,14.771-6.627,14.771-14.771    V14.772C95.546,6.627,88.92,0,80.775,0z"
   id="path4"
   style="stroke:none;stroke-opacity:1;fill:#ffffff;fill-opacity:1" />
	</g>
</g>
<g
   id="g10"
   style="stroke:none;stroke-opacity:1;fill:#ffffff;fill-opacity:1">
</g>
<g
   id="g12"
   style="stroke:none;stroke-opacity:1;fill:#ffffff;fill-opacity:1">
</g>
<g
   id="g14"
   style="stroke:none;stroke-opacity:1;fill:#ffffff;fill-opacity:1">
</g>
<g
   id="g16"
   style="stroke:none;stroke-opacity:1;fill:#ffffff;fill-opacity:1">
</g>
<g
   id="g18"
   style="stroke:none;stroke-opacity:1;fill:#ffffff;fill-opacity:1">
</g>
<g
   id="g20"
   style="stroke:none;stroke-opacity:1;fill:#ffffff;fill-opacity:1">
</g>
<g
   id="g22"
   style="stroke:none;stroke-opacity:1;fill:#ffffff;fill-opacity:1">
</g>
<g
   id="g24"
   style="stroke:none;stroke-opacity:1;fill:#ffffff;fill-opacity:1">
</g>
<g
   id="g26"
   style="stroke:none;stroke-opacity:1;fill:#ffffff;fill-opacity:1">
</g>
<g
   id="g28"
   style="stroke:none;stroke-opacity:1;fill:#ffffff;fill-opacity:1">
</g>
<g
   id="g30"
   style="stroke:none;stroke-opacity:1;fill:#ffffff;fill-opacity:1">
</g>
<g
   id="g32"
   style="stroke:none;stroke-opacity:1;fill:#ffffff;fill-opacity:1">
</g>
<g
   id="g34"
   style="stroke:none;stroke-opacity:1;fill:#ffffff;fill-opacity:1">
</g>
<g
   id="g36"
   style="stroke:none;stroke-opacity:1;fill:#ffffff;fill-opacity:1">
</g>
<g
   id="g38"
   style="stroke:none;stroke-opacity:1;fill:#ffffff;fill-opacity:1">
</g>
</svg>